<svg width="12" height="33" viewBox="0 0 12 33" fill="none" xmlns="http://www.w3.org/2000/svg">
<path d="M8.93749 0.944443C8.29103 0.944443 7.67104 1.25832 7.21392 1.81702C6.7568 2.37572 6.49999 3.13349 6.49999 3.92361C6.49999 4.71373 6.7568 5.4715 7.21392 6.0302C7.67104 6.5889 8.29103 6.90278 8.93749 6.90278C9.58396 6.90278 10.2039 6.5889 10.6611 6.0302C11.1182 5.4715 11.375 4.71373 11.375 3.92361C11.375 3.13349 11.1182 2.37572 10.6611 1.81702C10.2039 1.25832 9.58396 0.944443 8.93749 0.944443ZM8.35249 10.4182C6.41874 10.6168 1.13749 15.7608 1.13749 15.7608C0.812492 16.0587 0.909992 16.0389 1.16999 16.595C1.42999 17.1312 1.39749 17.171 1.70624 16.9128C2.03124 16.6546 2.56749 16.2375 3.46124 15.5622C6.90624 12.8611 4.01374 19.0975 2.53499 29.604C1.94999 34.8076 5.78499 32.1264 6.77624 31.3319C7.75124 30.5574 10.3675 28.3528 10.6275 28.1343C10.985 27.8364 10.725 27.5981 10.4487 27.1015C10.2537 26.7639 10.0587 27.0022 10.0587 27.0022C9.00249 27.8563 7.06874 29.6437 6.80874 28.5117C6.49999 27.3796 8.48249 19.6139 9.57124 14.2712C9.74999 13.0001 10.2375 10.2196 8.35249 10.4182Z" fill="black"/>
</svg>
