<?xml version="1.0" encoding="UTF-8"?><svg id="PSST_mlle_logo_dessin_styley_Image" xmlns="http://www.w3.org/2000/svg" viewBox="0 0 3000 3000"><path d="M1760.97,1870.62c243.96-154.61,487.93-309.21,733.28-464.7-7.95-6.71-14.76-13.61-22.65-18.9-16.41-11-33.1-21.24-52.3-27.58-25.72-8.49-51.81-8.9-78.24-8.07-19.28,.61-38.54,2.21-56.88,8.38-17.37,5.85-34.31,13.02-51.33,19.87-83.31,33.53-166.6,67.12-249.88,100.73-54.01,21.8-107.82,44.13-162.09,65.29-23.22,9.06-47.49,15.39-71.07,23.59-31.07,10.81-63.53,15.45-95.5,22.28-3.84,.82-7.91,.53-12.27,.77-11.57-28.25-22.94-56.09-34.37-83.91-29.87-72.71-59.83-145.39-89.61-218.14-7.27-17.76-14.21-35.67-20.82-53.68-2.37-6.47-7.14-9.26-12.81-11.66-48.54-20.57-97.05-41.18-145.58-61.78-14.45-6.14-28.9-12.29-44.18-18.79,1.39-3.52,2.37-6.42,3.64-9.19,10.96-23.96,21.82-47.96,33.04-71.8,6.6-14.01,13.9-27.69,20.7-41.6,7.3-14.93,14.46-29.94,21.56-44.97,6.73-14.24,13.31-28.56,19.96-42.85,12.58-27.02,25.24-54,37.73-81.06,8.76-18.99,17.56-37.98,25.86-57.17,7.05-16.29,13.38-32.9,20.12-49.33,3.59-8.76,7.61-17.35,11.05-26.16,7.92-20.28,15.91-40.55,23.33-61.03,9.96-27.47,19.64-55.05,28.99-82.73,4.4-13.03,7.76-26.4,11.57-39.63,1.27-4.41,2.53-8.83,3.71-13.27,4.1-15.51,8.58-30.93,12.14-46.56,7.06-31.03,12.02-54.24,16.32-76.57,1.66-8.62,2.97-15.76,4.35-24.72,2.27-14.75,3.37-25.78,4.37-35.88,1.45-14.6,3.02-30.81,3.68-52.21,.33-10.66,.43-22.87,.08-36.4,151.7,11.64,296.8,48.93,434.27,114.27,257.38,122.34,452.33,310.2,581.56,564.19,258.14,507.32,137.5,1126.59-291.7,1499.89-429.31,373.39-1022.1,391.86-1453.96,131.62,2.78-1.54,5.01-2.99,7.41-4.07,38.74-17.38,77.89-33.9,116.13-52.32,26.32-12.68,51.45-27.85,76.99-42.12,29.31-16.38,58.08-33.75,87.84-49.26,21.83-11.38,44.85-20.51,67.38-30.56,16.77-7.48,33.55-14.95,50.42-22.21,30.18-13,61.61-22.34,93.84-28.06,16.22-2.88,33.25-2.73,49.81-1.92,29.19,1.42,58.31,4.33,87.45,6.74,60.47,5,118.12,23.29,176.35,38.46,22.6,5.89,44.34,6.2,67.01,3.34,39.58-5,79.32-8.8,118.94-13.5,46.35-5.49,92.85-2.42,139.28-2.57,96.86-.32,193.73,.23,290.59,.39,2.51,0,5.03-.34,7.37-.51,1.92-6.51,.16-11.48-2.37-16.98-9.26-20.19-24.18-36.04-41.1-49.07-33.75-26-71.38-43.34-114.34-50.38-75.86-12.43-151.31-27.38-226.9-41.48-4.92-.92-9.89-3.03-14.16-5.67-33.69-20.86-67.26-41.92-100.75-63.1-3.84-2.43-6.97-5.96-10.43-8.99,.34-.65,.69-1.29,1.03-1.94,16.52-.81,33.03-1.67,49.55-2.41,41.86-1.89,83.74-3.61,125.59-5.76,5.27-.27,10.66-2.18,15.61-4.25,118.58-49.62,237.11-99.36,355.65-149.08,71.18-29.86,142.35-59.72,213.51-89.6,2.58-1.08,5.03-2.47,7.64-3.76-6.55-8.83-12.82-17.36-19.22-25.8-1-1.32-2.5-2.35-3.94-3.25-17.56-10.95-35.22-21.88-55.05-28.14-9.75-3.08-20.16-4.2-30.34-5.72-27.01-4.04-53.76-1.64-80.42,3.45-87.13,16.63-174.27,33.14-261.41,49.7-64.58,12.27-129.15,24.6-193.76,36.69-4.34,.81-9.09,.23-13.53-.47-88.23-13.75-122.43-16.77-134.98-22.28-4.22-1.85-7.5-3.46-8.75-4.08Z"/><path d="M1399.93,660.2c-8.38-17.9-16.57-35.9-24.97-53.79-48.86-104.16-97.76-208.3-146.66-312.44-2.17-4.61-4.51-9.14-6.68-13.54-343.55,76.34-700.6,325.98-870.5,740.82-158.5,386.98-95.12,785.51,54.37,1055.16,119.82-308.19,225.48-620.58,339.6-930.2,107.3,20.06,214.78,22.77,323.81,11.87-1.05,12.7-.88,24.3-3.14,35.4-6.19,30.45-21.89,55.81-44.26,77.13-20.54,19.57-43.84,35.08-69.48,47.17-6.47,3.05-12.83,6.43-18.91,10.19,0,0-5.84,4.1-11.05,9.15-8.26,8.01-24.64,32.39-31.49,78.69-.88,5.92-4.59,32.44-1.2,67.62,1.18,12.29,3.21,32.37,11.37,57.45,3.92,12.06,10.73,32.49,26.33,55.65,15.65,23.24,32.57,37.93,41.29,44.88,13.58,10.82,25.16,17.08,28.5,18.85,3.77,1.99,19.45,10.11,41.74,15.71,14,3.51,25.22,4.69,34.2,5.62,4.9,.51,14.18,1.36,25.95,1.56,17.89,.31,31.71-1.03,36.96-1.6,12.54-1.36,32.85-3.69,57.52-12.54,29.69-10.66,49.71-25.03,55.88-29.62,21.19-15.78,33.97-31.64,42.41-42.26,16.17-20.35,24.94-37.66,26.93-41.67,2-4.01,9.11-18.63,15.06-39.21,3.06-10.61,8.89-33.49,9.72-63.42,.52-18.62-1.14-36.26-4.21-54.16-4.95-28.79-33.33-86.23-36.29-87.13-15.57-4.7-31.58-8.13-46.88-13.57-40.03-14.25-76.08-35.93-110.47-60.67-16.8-12.08-30.7-26.77-42.18-43.77-7.55-11.18-13.56-23.21-16.73-37.25,4.8-.7,9.28-1.4,13.78-2,48.15-6.46,95.81-15.38,142.38-29.44,3.03-.92,25.45-28.4,33.79-40.06,14.17-19.81,28.94-39.3,33.06-64.36,2.59-15.78,1.5-31.2-6.09-45.23-12.25-22.65-32.17-32.26-57.66-31.86-13.56,.21-24.96,6.03-36.31,12.16-29.06,15.71-59,28.15-92.86,28.28-27.74,.1-54.29-3.7-78.26-19.15-25.4-16.38-31.83-49.09-19.25-72.74,6.52-12.26,15.66-22.17,26.73-29.88,34.19-23.8,71.2-41.86,111.8-51.96,40.7-10.12,80.92-21.73,119.55-38.26,34.89-14.93,67.17-33.95,92.08-63.31,10.57-12.46,32.3-44.87,30.71-48.27Zm-299.6,661.95c51.02-2.97,75.06-6.38,101.56-13.69,12.95-3.57,23.49-7.25,30.7-9.95-.97,2.56-2.44,6.46-4.24,11.19-2.12,5.55-4.03,10.48-5.86,15.18-3.23,8.24-6.49,16.47-9.73,24.71-.02,.04-.03,.08-.05,.12-1.3,3.31-2.62,6.62-3.92,9.93-3.3,8.4-6.59,16.8-9.93,25.19-1.88,4.72-3.74,9.45-5.61,14.18-5.59,14.19-11.18,28.38-17.17,42.4-2.32,5.42-9.41,21.45-19.75,41.91,0,0-28.68,56.74-56.89,92.27-.4,.5-.27,.33-1.46,1.81,0,0,0,0,0,0-1.17,1.67-3.09,3.88-5.4,6.31-6.58,7.23-12.6,12.16-17.34,15.34-4.03,2.89-7.5,4.77-9.32,4.48-2.11-.33-4.19-.73-6.24-1.21-9.34-2.17-18.06-5.86-26.28-10.42-1.51-.84-3.01-1.7-4.48-2.59-2.85-1.73-5.64-3.52-8.36-5.42-28.78-20.08-51.11-46.6-64.54-78.95,0,0,0,0,0,0-11.01-26.54-15.7-50.18-17.78-63.56-.49-3.13-1.79-11.9-3.65-38.74-1.66-23.99-2.61-45.87-3.14-65.27,12.89-2.7,33.26-6.57,58.5-9.53,39.17-4.6,47.55-2.03,110.41-5.69Z"/></svg>